<svg width="24" height="25" viewBox="0 0 24 25" fill="none" xmlns="http://www.w3.org/2000/svg">
<rect width="24" height="25" fill="#E5E5E5"/>
<g clip-path="url(#clip0_0_1)">
<rect width="1920" height="1080" transform="translate(-93 -199)" fill="#010C15"/>
<rect x="-23.5" y="-128.5" width="1781" height="940.32" rx="7.5" fill="#011627" stroke="#1E2D3D"/>
<g clip-path="url(#clip1_0_1)">
<path d="M5 20.6519H19V22.6519H5V20.6519ZM12 18.6519C9.87827 18.6519 7.84344 17.809 6.34315 16.3087C4.84285 14.8084 4 12.7736 4 10.6519C4 8.53012 4.84285 6.49529 6.34315 4.995C7.84344 3.49471 9.87827 2.65186 12 2.65186C14.1217 2.65186 16.1566 3.49471 17.6569 4.995C19.1571 6.49529 20 8.53012 20 10.6519C20 12.7736 19.1571 14.8084 17.6569 16.3087C16.1566 17.809 14.1217 18.6519 12 18.6519Z" fill="#607B96"/>
</g>
</g>
<defs>
<clipPath id="clip0_0_1">
<rect width="1920" height="1080" fill="white" transform="translate(-93 -199)"/>
</clipPath>
<clipPath id="clip1_0_1">
<rect width="24" height="24" fill="white" transform="translate(0 0.651855)"/>
</clipPath>
</defs>
</svg>
